<svg version="1.2" xmlns="http://www.w3.org/2000/svg" viewBox="0 0 234 109" width="234" height="109">
	<title>28-ai</title>
	<defs>
		<linearGradient id="g1" x1="14.1" y1="108.8" x2="14.1" y2="5" gradientUnits="userSpaceOnUse">
			<stop offset="0" stop-color="#39a149"/>
			<stop offset=".5" stop-color="#54c06c"/>
			<stop offset="1" stop-color="#42c2b2"/>
		</linearGradient>
		<linearGradient id="g2" x1=".7" y1="108.7" x2=".7" y2="4.8" gradientUnits="userSpaceOnUse">
			<stop offset="0" stop-color="#39a149"/>
			<stop offset=".5" stop-color="#54c06c"/>
			<stop offset="1" stop-color="#42c2b2"/>
		</linearGradient>
		<linearGradient id="g3" x1="168.1" y1="-151.4" x2="168.1" y2="-255.2" gradientUnits="userSpaceOnUse">
			<stop offset="0" stop-color="#39a149"/>
			<stop offset=".5" stop-color="#54c06c"/>
			<stop offset="1" stop-color="#42c2b2"/>
		</linearGradient>
		<linearGradient id="g4" x1="154.7" y1="-151.5" x2="154.7" y2="-255.3" gradientUnits="userSpaceOnUse">
			<stop offset="0" stop-color="#39a149"/>
			<stop offset=".5" stop-color="#54c06c"/>
			<stop offset="1" stop-color="#42c2b2"/>
		</linearGradient>
	</defs>
	<style>
		.s0 { fill: #1e1914 } 
		.s1 { fill: url(#g1) } 
		.s2 { fill: url(#g2) } 
		.s3 { fill: #2b9c55 } 
		.s4 { fill: url(#g3) } 
		.s5 { fill: url(#g4) } 
		.s6 { fill: #ffffff } 
	</style>
	<g id="BACKGROUND">
		<path id="&lt;Path&gt;" class="s0" d="m454-55h-500v-250h500z"/>
	</g>
	<g id="OBJECTS">
		<g id="&lt;Group&gt;">
			<g id="&lt;Group&gt;">
				<g id="&lt;Group&gt;">
					<path id="&lt;Path&gt;" class="s1" d="m36.5 83c-1.2 0-2.1-0.9-2.1-2.1v-9.8c-3.9-1.9-15-7.9-17.4-16.7-1.8-6.5-0.9-13.7 2.6-21.3 4.6-9.9 13.8-20.6 27.3-31.6 1-0.9 2.6-0.9 3.7 0 13.5 11 22.7 21.7 27.3 31.6 3.5 7.6 4.3 14.8 2.5 21.3-1.1 4-4.1 7.9-8.8 11.5-1 0.7-2.4 0.5-3.1-0.4-0.7-1-0.5-2.3 0.4-3 4-3 6.5-6.2 7.3-9.2 2.6-9.3-0.1-25-27.5-47.7-27.4 22.7-30.1 38.4-27.5 47.7 2.3 8.2 15.5 14.1 16.1 14.3 0.8 0.4 1.4 1.2 1.4 2.2v11.1c0 1.2-1 2.1-2.2 2.1z"/>
				</g>
				<g id="&lt;Group&gt;">
					<path id="&lt;Path&gt;" class="s2" d="m79.5 106.9c-2.4 0-4.5-0.2-5.6-0.3-8.4-1.1-23-8.9-23.6-9.2l-2.6-1.4c-0.2-0.1-14.5-7.8-22.2-8.8-5.4-0.7-12.9-0.4-16.5 2.6-1.3 1.1-1.9 2.4-2 4.1-0.1 2.1 0.5 3.8 1.9 5.1 2.4 2.5 7.1 3.8 13 3.6 9.2-0.3 21.1-5.7 21.2-5.8 1.1-0.5 2.4 0 2.9 1.1 0.5 1.1 0 2.4-1 2.9-0.6 0.2-12.9 5.9-23 6.1-7.2 0.2-12.9-1.5-16.2-4.8-2.2-2.2-3.3-5.1-3.1-8.4 0.1-2.9 1.3-5.3 3.5-7.2 5.9-4.9 16.7-4 19.9-3.6 8.4 1.1 23 8.9 23.6 9.3l2.6 1.4c0.2 0 14.5 7.7 22.2 8.7 5.4 0.7 12.9 0.4 16.5-2.6 1.3-1.1 1.9-2.4 2-4.1 0.1-2.1-0.5-3.7-1.9-5.1-2.4-2.4-7.1-3.7-13-3.6-3.5 0.1-8 1-12.9 2.6-0.8 0.3-1.6 0.1-2.3-0.3-0.6-0.5-1-1.2-1-2v-15.7c0-0.3-0.1-7.7-6-10.5-8-3.9-14.8-8.5-18-12.4-1.3-1.4-2.8-4.3-3-4.6l-0.1-0.2q-1.2-2.9-1.2-6c0-8.3 6.7-15.1 15-15.1 8.3 0 15.1 6.8 15.1 15.1 0 5.5-3 10.6-7.9 13.3-1.1 0.5-2.4 0.1-3-0.9-0.5-1.1-0.1-2.4 0.9-3 3.5-1.8 5.7-5.5 5.7-9.4 0-6-4.8-10.8-10.8-10.8-5.9 0-10.7 4.8-10.7 10.8q0 2.2 0.9 4.2c0.4 0.8 1.6 2.9 2.3 3.8 2.9 3.4 9.3 7.7 16.7 11.3 8.4 4 8.5 14 8.5 14.4v13.2c4.4-1.3 8.3-2 11.7-2.1 7.2-0.2 12.9 1.5 16.2 4.9 2.2 2.2 3.3 5.1 3.1 8.3-0.1 2.9-1.3 5.4-3.5 7.2-3.8 3.2-9.7 3.9-14.3 3.9z"/>
				</g>
			</g>
			<g id="&lt;Group&gt;">
				<path id="Space" class="s3" aria-label="space"  d="m167.1 64.9v3.5q-1.3-0.6-2.6-0.9-1.3-0.3-2.5-0.3-1.5 0-2.3 0.4-0.7 0.4-0.7 1.3 0 0.7 0.5 1.1 0.5 0.3 1.8 0.6l1.8 0.4q2.8 0.5 4 1.7 1.1 1.1 1.1 3.2 0 2.7-1.6 4.1-1.6 1.3-5 1.3-1.6 0-3.2-0.3-1.6-0.3-3.2-0.9v-3.6q1.6 0.9 3.1 1.3 1.5 0.4 2.9 0.4 1.4 0 2.1-0.5 0.8-0.4 0.8-1.3 0-0.8-0.5-1.2-0.5-0.4-2-0.8l-1.7-0.3q-2.5-0.6-3.7-1.7-1.1-1.2-1.1-3.2 0-2.5 1.6-3.8 1.6-1.3 4.6-1.3 1.4 0 2.8 0.2 1.5 0.2 3 0.6zm4.9 16.1v-16.6h7.1q3.2 0 4.9 1.4 1.7 1.4 1.7 4 0 2.6-1.7 4-1.7 1.4-4.9 1.4h-2.8v5.8zm6.6-13.5h-2.3v4.6h2.3q1.3 0 2-0.6 0.7-0.6 0.7-1.7 0-1.1-0.7-1.7-0.7-0.6-2-0.6zm19.2 13.5l-1.1-3h-6.7l-1.1 3h-4.3l6.2-16.6h5.1l6.2 16.6zm-4.4-12.7l-2.3 6.6h4.5zm24.2 8.4v3.4q-1.2 0.6-2.5 0.9-1.3 0.3-2.7 0.3-4.1 0-6.6-2.3-2.4-2.3-2.4-6.3 0-4 2.4-6.3 2.5-2.3 6.6-2.3 1.4 0 2.7 0.3 1.3 0.3 2.5 0.9v3.5q-1.2-0.9-2.4-1.2-1.1-0.4-2.4-0.4-2.3 0-3.6 1.5-1.4 1.4-1.4 4 0 2.6 1.4 4.1 1.3 1.4 3.6 1.4 1.3 0 2.4-0.3 1.2-0.4 2.4-1.2zm3.5 4.3v-16.6h11.6v3.2h-7.3v3.1h6.9v3.3h-6.9v3.8h7.5v3.2z"/>
				<path id="YOGA
" class="s3" aria-label="YOGA"  d="m102.4 72.7l-4.8-7.4h3.6l2.8 4.5 2.9-4.5h3.6l-4.8 7.4v5.3h-3.3zm14.7-5.2q-1.5 0-2.3 1.1-0.8 1.1-0.8 3.1 0 2 0.8 3.1 0.8 1.1 2.3 1.1 1.5 0 2.3-1.1 0.9-1.1 0.9-3.1 0-2-0.9-3.1-0.8-1.1-2.3-1.1zm0-2.4q3.1 0 4.8 1.8 1.7 1.7 1.7 4.8 0 3.1-1.7 4.8-1.7 1.8-4.8 1.8-3 0-4.8-1.8-1.7-1.7-1.7-4.8 0-3.1 1.7-4.8 1.8-1.8 4.8-1.8zm20.4 5.9v6.1q-1.2 0.6-2.5 0.9-1.4 0.3-2.8 0.3-3.1 0-5-1.8-1.8-1.8-1.8-4.8 0-3.1 1.9-4.8 1.8-1.8 5.1-1.8 1.3 0 2.4 0.3 1.2 0.2 2.2 0.7v2.6q-1-0.6-2.1-0.9-1-0.3-2.1-0.3-1.9 0-3 1.1-1 1.1-1 3.1 0 2 1 3.1 1 1.1 2.9 1.1 0.5 0 0.9 0 0.5-0.1 0.8-0.2v-2.5h-2v-2.2zm11.4 7l-0.8-2.3h-5.1l-0.8 2.3h-3.3l4.7-12.6h3.9l4.7 12.6zm-3.4-9.7l-1.7 5.1h3.4z"/>
			</g>
		</g>
		<g id="&lt;Group&gt;">
			<g id="&lt;Group&gt;">
				<g id="&lt;Group&gt;">
					<path id="&lt;Path&gt;" class="s4" d="m190.5-177.1c-1.2 0-2.1-1-2.1-2.2v-9.8c-3.9-1.9-15-7.9-17.4-16.6-1.8-6.6-0.9-13.7 2.6-21.3 4.6-10 13.8-20.6 27.3-31.7 1-0.9 2.6-0.9 3.7 0 13.5 11.1 22.7 21.7 27.3 31.7 3.5 7.6 4.3 14.7 2.5 21.3-1.1 4-4.1 7.8-8.8 11.4-1 0.8-2.4 0.6-3.1-0.4-0.7-0.9-0.5-2.3 0.4-3 4-3 6.5-6.2 7.3-9.2 2.6-9.3-0.1-25-27.5-47.7-27.4 22.7-30.1 38.4-27.5 47.7 2.3 8.3 15.5 14.1 16.1 14.4 0.8 0.3 1.4 1.2 1.4 2.1v11.1c0 1.2-1 2.2-2.2 2.2z"/>
				</g>
				<g id="&lt;Group&gt;">
					<path id="&lt;Path&gt;" class="s5" d="m233.5-153.2c-2.4 0-4.5-0.2-5.6-0.4-8.4-1.1-23-8.9-23.6-9.2l-2.6-1.4c-0.2-0.1-14.5-7.7-22.2-8.7-5.4-0.7-12.9-0.5-16.5 2.6-1.3 1-1.9 2.4-2 4.1-0.1 2 0.5 3.7 1.9 5.1 2.4 2.4 7.1 3.7 13 3.5 9.2-0.2 21.1-5.7 21.2-5.7 1.1-0.5 2.4 0 2.9 1 0.5 1.1 0 2.4-1 2.9-0.6 0.2-12.9 5.9-23 6.2-7.2 0.2-12.9-1.6-16.2-4.9-2.2-2.2-3.3-5.1-3.1-8.3 0.1-3 1.3-5.4 3.5-7.2 5.9-5 16.7-4 19.9-3.6 8.4 1.1 23 8.9 23.6 9.2l2.6 1.4c0.2 0.1 14.5 7.7 22.2 8.7 5.4 0.7 12.9 0.5 16.5-2.6 1.3-1 1.9-2.4 2-4.1 0.1-2-0.5-3.7-1.9-5.1-2.4-2.4-7.1-3.7-13-3.5-3.5 0.1-8 1-12.9 2.6-0.8 0.2-1.6 0.1-2.3-0.4-0.6-0.5-1-1.2-1-2v-15.7c0-0.3-0.1-7.6-6-10.5-8-3.9-14.8-8.5-18-12.3-1.3-1.5-2.8-4.4-3-4.7l-0.1-0.1q-1.2-2.9-1.2-6.1c0-8.3 6.7-15.1 15-15.1 8.3 0 15.1 6.8 15.1 15.1 0 5.6-3 10.6-7.9 13.3-1.1 0.5-2.4 0.2-3-0.9-0.5-1.1-0.1-2.4 0.9-2.9 3.5-1.9 5.7-5.5 5.7-9.5 0-5.9-4.8-10.7-10.8-10.7-5.9 0-10.7 4.8-10.7 10.7q0 2.2 0.9 4.3c0.4 0.8 1.6 2.8 2.3 3.8 2.9 3.3 9.3 7.6 16.7 11.2 8.4 4.1 8.5 14 8.5 14.4v13.2c4.4-1.3 8.3-2 11.7-2.1 7.2-0.2 12.9 1.6 16.2 4.9 2.2 2.2 3.3 5.1 3.1 8.3-0.1 3-1.3 5.4-3.5 7.2-3.8 3.3-9.7 4-14.3 4z"/>
				</g>
			</g>
			<g id="&lt;Group&gt;">
				<path id="MEDIATION
" class="s6" aria-label="MEDIATION"  d="m134-120v-16.6h5.5l3.7 8.9 3.9-8.9h5.4v16.6h-4.1v-12.2l-3.8 9h-2.7l-3.8-9v12.2zm22.7 0v-16.6h11.6v3.2h-7.3v3.1h6.8v3.2h-6.8v3.9h7.5v3.2zm21.4-13.4h-1.5v10.2h1.5q2.6 0 4-1.3 1.4-1.4 1.4-3.8 0-2.5-1.4-3.8-1.3-1.3-4-1.3zm-5.8 13.4v-16.6h4.5q3.8 0 5.7 0.5 1.8 0.5 3.1 1.8 1.2 1.2 1.8 2.6 0.5 1.5 0.5 3.4 0 1.8-0.5 3.3-0.6 1.5-1.8 2.6-1.3 1.3-3.2 1.9-1.8 0.5-5.6 0.5zm19 0v-16.6h4.3v16.6zm19.6 0l-1.1-3h-6.7l-1 3h-4.3l6.1-16.6h5.1l6.2 16.6zm-4.4-12.7l-2.3 6.6h4.6zm7.1-0.7v-3.2h15.4v3.2h-5.5v13.4h-4.3v-13.4zm17.5 13.4v-16.6h4.3v16.6zm16.1-13.8q-2 0-3 1.4-1.1 1.5-1.1 4.1 0 2.6 1.1 4.1 1 1.4 3 1.4 2 0 3.1-1.4 1-1.5 1-4.1 0-2.6-1-4.1-1.1-1.4-3.1-1.4zm0-3.1q4 0 6.3 2.3 2.3 2.3 2.3 6.3 0 4.1-2.3 6.3-2.3 2.3-6.3 2.3-4 0-6.3-2.3-2.3-2.2-2.3-6.3 0-4 2.3-6.3 2.3-2.3 6.3-2.3zm11.8 16.9v-16.6h4.8l6.1 11.4v-11.4h4v16.6h-4.8l-6-11.4v11.4z"/>
				<path id="YOGA
" class="s6" aria-label="YOGA"  d="m181.4-99.3l-4.8-7.4h3.6l2.8 4.5 2.9-4.5h3.6l-4.8 7.4v5.3h-3.3zm14.7-5.2q-1.5 0-2.3 1.1-0.8 1.1-0.8 3.1 0 2 0.8 3.1 0.8 1.1 2.3 1.1 1.5 0 2.3-1.1 0.9-1.1 0.9-3.1 0-2-0.9-3.1-0.8-1.1-2.3-1.1zm0-2.4q3.1 0 4.8 1.8 1.7 1.7 1.7 4.8 0 3.1-1.7 4.8-1.7 1.8-4.8 1.8-3 0-4.8-1.8-1.7-1.7-1.7-4.8 0-3.1 1.7-4.8 1.8-1.8 4.8-1.8zm20.4 5.9v6.1q-1.2 0.6-2.5 0.9-1.4 0.3-2.8 0.3-3.1 0-5-1.8-1.8-1.8-1.8-4.8 0-3.1 1.9-4.8 1.8-1.8 5.1-1.8 1.3 0 2.4 0.3 1.2 0.2 2.2 0.7v2.6q-1-0.6-2.1-0.9-1-0.3-2.1-0.3-1.9 0-3 1.1-1 1.1-1 3.1 0 2 1 3.1 1 1.1 2.9 1.1 0.5 0 0.9 0 0.5-0.1 0.8-0.2v-2.5h-2v-2.2zm11.4 7l-0.8-2.3h-5.1l-0.8 2.3h-3.3l4.7-12.6h3.9l4.7 12.6zm-3.4-9.7l-1.7 5.1h3.4z"/>
			</g>
		</g>
	</g>
</svg>